<?xml version="1.0" encoding="utf-8"?>
<!-- Generator: Adobe Illustrator 19.0.0, SVG Export Plug-In . SVG Version: 6.00 Build 0)  -->
<svg version="1.1" id="Layer_1" xmlns="http://www.w3.org/2000/svg" xmlns:xlink="http://www.w3.org/1999/xlink" x="0px" y="0px"
	 viewBox="0 0 198.1 218.4" style="enable-background:new 0 0 198.1 218.4;" xml:space="preserve">
<style type="text/css">
	.st0{fill:url(#XMLID_8_);}
	.st1{fill:url(#XMLID_17_);}
	.st2{fill:url(#XMLID_26_);}
	.st3{fill:url(#XMLID_30_);}
	.st4{fill:url(#XMLID_31_);}
	.st5{fill:url(#XMLID_32_);}
	.st6{fill:url(#XMLID_33_);}
	.st7{fill:url(#XMLID_34_);}
	.st8{fill:url(#XMLID_35_);}
</style>
<linearGradient id="XMLID_8_" gradientUnits="userSpaceOnUse" x1="154.883" y1="173.4713" x2="-4.0293" y2="112.5683">
	<stop  offset="0" style="stop-color:#2C3E50"/>
	<stop  offset="1" style="stop-color:#2C3E50"/>
</linearGradient>
<polygon id="XMLID_68_" class="st0" points="0,140.3 121.8,218.4 172.9,161 22.3,65 "/>
<linearGradient id="XMLID_17_" gradientUnits="userSpaceOnUse" x1="88.3247" y1="61.3831" x2="109.8783" y2="111.5766" gradientTransform="matrix(0.8407 0.5416 -0.5416 0.8407 82.663 -38.4394)">
	<stop  offset="0" style="stop-color:#2C3E50"/>
	<stop  offset="1" style="stop-color:#2C3E50"/>
</linearGradient>
<polygon id="XMLID_70_" class="st1" points="61.8,50.6 100,158.9 180.3,102.3 118.8,0 "/>
<linearGradient id="XMLID_26_" gradientUnits="userSpaceOnUse" x1="-8.6027" y1="107.1041" x2="126.048" y2="116.4548">
	<stop  offset="0" style="stop-color:#F1C40F"/>
	<stop  offset="1" style="stop-color:#FFCF10"/>
</linearGradient>
<polygon id="XMLID_66_" class="st2" points="22.3,65 180.3,102.3 100,158.9 0,140.3 "/>
<linearGradient id="XMLID_30_" gradientUnits="userSpaceOnUse" x1="128.556" y1="276.1981" x2="178.5128" y2="101.0333" gradientTransform="matrix(0.8407 0.5416 -0.5416 0.8407 82.663 -38.4394)">
	<stop  offset="0" style="stop-color:#F1C40F"/>
	<stop  offset="1" style="stop-color:#FFCF10"/>
</linearGradient>
<polygon id="XMLID_69_" class="st3" points="122.4,166.2 198.1,132.8 121.8,218.4 "/>
<linearGradient id="XMLID_31_" gradientUnits="userSpaceOnUse" x1="54.6731" y1="3.9441" x2="163.1731" y2="68.9441">
	<stop  offset="0" style="stop-color:#FFCF10"/>
	<stop  offset="1" style="stop-color:#F1C40F"/>
</linearGradient>
<path id="XMLID_6_" class="st4" d="M185.7,58.8L118.8,0l-57,50.6l124.6,42.2L185.7,58.8z M150.3,64.8c-5.4,0-9.7-4.4-9.7-9.7
	c0-5.4,4.4-9.7,9.7-9.7c5.4,0,9.7,4.4,9.7,9.7C160,60.5,155.6,64.8,150.3,64.8z"/>
<linearGradient id="XMLID_32_" gradientUnits="userSpaceOnUse" x1="138.5773" y1="129.5436" x2="31.0773" y2="59.5436">
	<stop  offset="0" style="stop-color:#FFD633;stop-opacity:0"/>
	<stop  offset="0.9975" style="stop-color:#FFD633"/>
</linearGradient>
<polygon id="XMLID_2_" class="st5" points="180.3,102.3 100,158.9 22.3,65 "/>
<linearGradient id="XMLID_33_" gradientUnits="userSpaceOnUse" x1="134.8132" y1="166.8364" x2="-5.6868" y2="110.3364">
	<stop  offset="0" style="stop-color:#34495E;stop-opacity:0"/>
	<stop  offset="1" style="stop-color:#0B1014"/>
</linearGradient>
<polygon id="XMLID_1_" class="st6" points="0,140.3 0,140.3 109.3,187.1 137.3,138.3 133,135.6 100,158.9 "/>
<linearGradient id="XMLID_34_" gradientUnits="userSpaceOnUse" x1="176.3543" y1="94.7286" x2="48.6352" y2="43.3683">
	<stop  offset="0" style="stop-color:#34495E;stop-opacity:0"/>
	<stop  offset="1" style="stop-color:#0B1014"/>
</linearGradient>
<polygon id="XMLID_7_" class="st7" points="61.8,50.6 167.7,96.1 168.5,86.7 "/>
<linearGradient id="XMLID_35_" gradientUnits="userSpaceOnUse" x1="67.7523" y1="28.0964" x2="145.2795" y2="18.5583">
	<stop  offset="0" style="stop-color:#FFD633;stop-opacity:0"/>
	<stop  offset="0.9975" style="stop-color:#FFD633"/>
</linearGradient>
<polygon id="XMLID_29_" class="st8" points="155.1,31.8 118.8,0 61.8,50.6 "/>
</svg>
